HIERARCHY
ROOT Hips
{
	OFFSET 0.000000 0.000000 0.000000 
	CHANNELS 6 Xposition Yposition Zposition Zrotation Yrotation Xrotation
	JOINT LeftUpLeg
	{
		OFFSET 1.363060 -1.794630 0.839290 
		CHANNELS 3 Zrotation Yrotation Xrotation
		JOINT LeftLeg
		{
			OFFSET 2.448110 -6.726130 0.000000 
			CHANNELS 3 Zrotation Yrotation Xrotation
			JOINT LeftFoot
			{
				OFFSET 2.562200 -7.039590 0.000000 
				CHANNELS 3 Zrotation Yrotation Xrotation
				JOINT LeftToeBase
				{
					OFFSET 0.157640 -0.433110 2.322550 
					CHANNELS 3 Zrotation Yrotation Xrotation
					End Site
					{
						OFFSET 0.000000 0.000000 0.000000 
					}
				}
			}
		}
	}
	JOINT RightUpLeg
	{
		OFFSET -1.305520 -1.794630 0.839290 
		CHANNELS 3 Zrotation Yrotation Xrotation
		JOINT RightLeg
		{
			OFFSET -2.542530 -6.985550 0.000000 
			CHANNELS 3 Zrotation Yrotation Xrotation
			JOINT RightFoot
			{
				OFFSET -2.568260 -7.056230 0.000000 
				CHANNELS 3 Zrotation Yrotation Xrotation
				JOINT RightToeBase
				{
					OFFSET -0.164730 -0.452590 2.363150 
					CHANNELS 3 Zrotation Yrotation Xrotation
					End Site
					{
						OFFSET 0.000000 0.000000 0.000000 
					}
				}
			}
		}
	}
	JOINT Spine
	{
		OFFSET 0.028270 2.035590 -0.193380 
		CHANNELS 3 Zrotation Yrotation Xrotation
		JOINT Spine1
		{
			OFFSET 0.056720 2.048850 -0.042750 
			CHANNELS 3 Zrotation Yrotation Xrotation
			JOINT Neck1
			{
				OFFSET -0.054170 1.746240 0.172020 
				CHANNELS 3 Zrotation Yrotation Xrotation
				JOINT Head
				{
					OFFSET 0.104070 1.761360 -0.123970 
					CHANNELS 3 Zrotation Yrotation Xrotation
					End Site
					{
						OFFSET 0.000000 0.000000 0.000000 
					}
				}
			}
			JOINT LeftArm
			{
				OFFSET 3.362410 1.200890 -0.311210 
				CHANNELS 3 Zrotation Yrotation Xrotation
				JOINT LeftForeArm
				{
					OFFSET 4.983000 -0.000000 -0.000000 
					CHANNELS 3 Zrotation Yrotation Xrotation
					JOINT LeftHand
					{
						OFFSET 3.483560 -0.000000 -0.000000 
						CHANNELS 3 Zrotation Yrotation Xrotation
						JOINT LeftHandIndex1
						{
							OFFSET 0.715260 -0.000000 -0.000000 
							CHANNELS 3 Zrotation Yrotation Xrotation
							End Site
							{
								OFFSET 0.000000 0.000000 0.000000 
							}
						}
					}
				}
			}
			JOINT RightArm
			{
				OFFSET -3.136600 1.374050 -0.404650 
				CHANNELS 3 Zrotation Yrotation Xrotation
				JOINT RightForeArm
				{
					OFFSET -5.241900 -0.000000 -0.000000 
					CHANNELS 3 Zrotation Yrotation Xrotation
					JOINT RightHand
					{
						OFFSET -3.444170 -0.000000 -0.000000 
						CHANNELS 3 Zrotation Yrotation Xrotation
						JOINT RightHandIndex1
						{
							OFFSET -0.622530 -0.000000 -0.000000 
							CHANNELS 3 Zrotation Yrotation Xrotation
							End Site
							{
								OFFSET 0.000000 0.000000 0.000000 
							}
						}
					}
				}
			}
		}
	}
}
MOTION
Frames: 7
Frame Time: 0.041667
10.000106 17.827531 49.633368 -177.642057 7.845275 -179.419526 -16.410386 -20.222745 -3.890347 -2.032843 9.360212 26.751957 -6.155715 18.269708 -11.548224 1.012000 -6.400600 -17.951400 26.426427 21.724826 -1.375895 1.808250 -8.867052 26.855682 6.445470 -22.863733 -16.426476 -0.129200 -2.317000 6.382700 4.718889 -0.907567 4.384900 -2.792984 -0.529296 -11.404555 14.158595 -2.397677 25.191948 4.031100 0.624000 8.989200 -92.149674 6.381321 18.402816 24.772349 -25.363093 -7.263443 2.547837 0.034295 32.973430 -7.125000 0.000000 0.000000 84.325078 -10.042679 49.573688 -23.085417 26.753413 -7.194446 0.904103 0.989607 2.490980 7.125000 0.000000 0.000000 
10.001171 17.845753 49.630292 -177.929536 7.633952 -178.945418 -16.317874 -20.483368 -4.225898 -2.083979 9.329841 26.504503 -6.084589 18.065531 -11.217372 0.937800 -6.168300 -17.273600 26.081202 21.822694 -1.747516 1.843559 -8.840267 26.785886 6.174863 -22.181487 -16.822927 -0.203400 -2.904000 8.011600 1.515675 0.500399 4.276429 -4.299309 -0.035646 -11.043538 13.042132 -4.358801 25.831822 2.980800 -0.016400 9.428300 -88.912737 6.441836 24.653436 24.657829 -25.055202 -7.084424 2.350880 0.170223 27.651884 -7.125000 0.000000 0.000000 88.068397 -9.908632 45.081307 -22.908413 26.545182 -7.040944 0.910569 1.014803 3.286852 7.125000 0.000000 0.000000 
10.003419 17.857349 49.632421 -177.881677 7.314690 -178.530910 -16.179048 -21.085933 -4.340353 -2.121828 9.290073 26.337591 -6.123816 18.139718 -11.272851 0.877500 -5.971900 -16.702900 25.951738 22.063500 -2.038543 1.898816 -8.810491 26.602568 6.192896 -22.282320 -17.073714 -0.231600 -3.097500 8.550300 1.809036 0.411828 3.960503 -4.158590 -0.082382 -10.945418 12.012039 -4.213852 26.572514 2.625000 0.053700 9.755900 -89.176150 6.274441 26.027951 24.296510 -24.541868 -6.836063 2.273323 0.278857 23.094380 -7.125000 0.000000 0.000000 87.843952 -9.988985 45.186884 -22.887391 26.508408 -7.031022 0.922973 1.005110 3.293452 7.125000 0.000000 0.000000 
10.007324 17.873205 49.633605 -177.878969 6.969973 -177.922534 -16.013533 -21.685975 -4.662867 -2.155653 9.262267 26.175037 -6.199973 18.293613 -11.292343 0.785200 -5.657100 -15.792600 25.717365 22.309071 -2.598648 1.939688 -8.818750 26.441624 6.401457 -22.836707 -17.098014 -0.157000 -2.553100 7.036900 2.051015 0.294457 3.499617 -3.985261 -0.138673 -10.764627 10.691614 -3.982702 27.291238 2.118000 0.160800 10.068000 -89.612657 7.036412 29.229278 24.584110 -24.597246 -6.814958 1.869588 0.619560 14.996728 -7.125000 0.000000 0.000000 87.593557 -10.085252 45.533109 -22.863746 26.479748 -7.033450 0.919270 1.004667 3.291642 7.125000 0.000000 0.000000 
10.008862 17.886102 49.633841 -177.981083 6.612852 -177.359110 -15.862878 -21.530601 -5.359067 -2.142939 9.281741 26.110636 -6.223215 18.267857 -10.685408 0.996600 -6.353100 -17.812500 25.382200 22.485852 -3.121340 1.979367 -8.811977 26.267641 6.598912 -23.341116 -17.107754 -0.122400 -2.255300 6.211600 2.187403 0.172244 2.999389 -3.816073 -0.188149 -10.643598 9.816329 -3.722681 27.674161 1.788200 0.277500 10.192400 -89.867690 7.280442 29.169889 24.620373 -24.651965 -6.857096 1.943157 0.537522 14.746232 -7.125000 0.000000 0.000000 87.329232 -10.168284 45.942402 -22.797759 26.395831 -7.000313 0.927659 0.997075 3.506844 7.125000 0.000000 0.000000 
10.013477 17.879594 49.642361 -178.032141 6.323549 -177.377164 -15.817227 -21.085471 -5.667370 -2.104076 9.315932 26.157120 -6.223246 18.201436 -10.025200 1.296900 -7.215100 -20.354200 25.460949 22.876729 -2.853143 2.009268 -8.771153 26.176704 6.711897 -23.763706 -17.549820 -0.154300 -2.530900 6.975500 2.270902 0.103072 2.891023 -3.702608 -0.209456 -10.777655 9.754991 -3.688459 28.072517 1.809200 0.319200 10.383900 -90.043734 7.370803 29.190093 24.554636 -24.620525 -6.859793 2.111158 0.297300 14.395960 -7.125000 0.000000 0.000000 87.221431 -10.146897 46.101026 -22.708209 26.285326 -6.950722 0.949232 0.981307 3.816737 7.125000 0.000000 0.000000 
10.017618 17.880422 49.649105 -177.931211 6.116633 -177.404373 -15.672343 -21.037998 -5.744026 -2.083700 9.327987 26.176772 -6.244237 18.212102 -9.753650 1.444300 -7.597400 -21.497800 25.619042 22.868413 -2.798668 2.019681 -8.762242 26.157700 6.742484 -23.902016 -17.696418 -0.160700 -2.582400 7.118300 2.236105 0.163354 2.976467 -3.793035 -0.190978 -10.760096 9.752452 -3.809503 28.149714 1.801300 0.273400 10.429600 -89.966008 7.245972 29.498072 24.551614 -24.589280 -6.839737 2.015579 0.442448 14.225551 -7.125000 0.000000 0.000000 87.309576 -10.027491 45.972532 -22.665267 26.236321 -6.933609 0.957330 0.975802 3.957978 7.125000 0.000000 0.000000 
